<?xml version="1.0" encoding="UTF-8" standalone="no"?><!DOCTYPE svg PUBLIC "-//W3C//DTD SVG 1.1//EN" "http://www.w3.org/Graphics/SVG/1.1/DTD/svg11.dtd"><svg width="100%" height="100%" viewBox="0 0 660 660" version="1.1" xmlns="http://www.w3.org/2000/svg" xmlns:xlink="http://www.w3.org/1999/xlink" xml:space="preserve" xmlns:serif="http://www.serif.com/" style="fill-rule:evenodd;clip-rule:evenodd;stroke-linejoin:round;stroke-miterlimit:2;"><clipPath id="_clip1"><rect x="29.339" y="47.693" width="601.321" height="564.613"/></clipPath><g clip-path="url(#_clip1)"><path d="M572.01,177.721c28.912,43.917 45.694,96.194 45.694,152.279c-0,155.445 -128.916,281.646 -287.704,281.646c-57.431,-0 -110.954,-16.509 -155.883,-44.939c2.161,-7.697 4.134,-15.439 5.903,-23.23c42.642,28.78 94.316,45.637 149.98,45.637c146.085,0 264.688,-116.105 264.688,-259.114c-0,-48.175 -13.459,-93.296 -36.893,-131.955l0.651,-0.422l13.564,-19.902Zm-515.109,241.049c-9.474,-27.913 -14.605,-57.76 -14.605,-88.77c0,-155.445 128.916,-281.646 287.704,-281.646c73.473,0 140.551,27.02 191.421,71.455l-22.817,10.503c-45.801,-37.113 -104.562,-59.426 -168.604,-59.426c-146.085,-0 -264.688,116.105 -264.688,259.114c0,30.202 5.29,59.204 15.012,86.166c-7.808,0.611 -15.615,1.481 -23.423,2.604Z" style="fill:#1a3033;"/><path d="M572.562,177.357c28.981,44.022 45.803,96.425 45.803,152.643c-0,155.805 -129.208,282.307 -288.365,282.307c-57.561,-0 -111.205,-16.547 -156.237,-45.042c-0.246,-0.156 -0.361,-0.456 -0.282,-0.737c2.158,-7.686 4.128,-15.417 5.895,-23.197c0.048,-0.213 0.198,-0.388 0.401,-0.468c0.202,-0.08 0.432,-0.055 0.612,0.067c42.538,28.709 94.084,45.524 149.611,45.524c145.717,-0 264.027,-115.806 264.027,-258.454c0,-48.05 -13.424,-93.054 -36.797,-131.613c-0.186,-0.305 -0.094,-0.703 0.206,-0.897l0.539,-0.349l13.489,-19.792c0.124,-0.183 0.331,-0.291 0.551,-0.289c0.221,0.002 0.426,0.113 0.547,0.297Zm-0.552,0.364l-13.564,19.902l-0.651,0.422c23.434,38.659 36.893,83.78 36.893,131.955c-0,143.009 -118.603,259.114 -264.688,259.114c-55.664,0 -107.338,-16.857 -149.98,-45.637c-1.769,7.791 -3.742,15.533 -5.903,23.23c44.929,28.43 98.452,44.939 155.883,44.939c158.788,-0 287.704,-126.201 287.704,-281.646c-0,-56.085 -16.782,-108.362 -45.694,-152.279Zm-515.734,241.261c-9.498,-27.98 -14.641,-57.898 -14.641,-88.982c0,-155.805 129.208,-282.307 288.365,-282.307c73.64,0 140.87,27.083 191.855,71.619c0.169,0.147 0.252,0.37 0.22,0.591c-0.032,0.222 -0.175,0.412 -0.378,0.506l-22.816,10.503c-0.229,0.105 -0.497,0.071 -0.692,-0.087c-45.689,-37.021 -104.305,-59.279 -168.189,-59.279c-145.717,0 -264.027,115.806 -264.027,258.454c-0,30.124 5.276,59.05 14.972,85.942c0.07,0.194 0.045,0.409 -0.066,0.582c-0.112,0.174 -0.298,0.285 -0.504,0.301c-7.793,0.61 -15.586,1.478 -23.38,2.598c-0.314,0.046 -0.617,-0.14 -0.719,-0.441Zm0.625,-0.212c7.808,-1.123 15.615,-1.993 23.423,-2.604c-9.722,-26.962 -15.012,-55.964 -15.012,-86.166c0,-143.009 118.603,-259.114 264.688,-259.114c64.042,-0 122.803,22.313 168.604,59.426l22.817,-10.503c-50.87,-44.435 -117.948,-71.455 -191.421,-71.455c-158.788,0 -287.704,126.201 -287.704,281.646c0,31.01 5.131,60.857 14.605,88.77Z" style="fill:#fff;"/><path d="M352.054,296.677l-4.126,36.784l-236.24,163.313l162.096,-243.905l43.533,-4.872c1.517,21.925 15.412,40.467 34.737,48.68Zm-29.867,-76.108c-27.203,-27.286 -61.441,-54.069 -96.515,-80.793c59.284,2.462 101.038,18.513 148.803,47.007c-0.028,-0 -0.056,-0 -0.083,-0c-23.232,-0 -43.248,13.876 -52.205,33.786Zm67.932,-31.594l239.881,-110.419l-78.104,114.602l-127.649,22.768c-7.315,-12.955 -19.533,-22.781 -34.128,-26.951Zm39.555,40.243l134.439,-9.776l-60.042,56.505l-79.738,-4.034c4.63,-8.26 7.271,-17.783 7.271,-27.917c0,-5.11 -0.671,-10.063 -1.93,-14.778Zm-11.903,52.065c13.714,43.156 9.281,87.01 -4.039,131.205c-12.759,-38.741 -29.57,-76.671 -53.784,-113.121c4.615,1.202 9.455,1.841 14.444,1.841c17.337,0 32.883,-7.728 43.379,-19.925Zm-256.352,300.161l-29.196,-85.643l50.217,-32.112c-1.236,40.626 -8.885,79.725 -21.021,117.755Zm-131.419,-149.698c37.163,-8.246 74.326,-10.803 111.489,-7.007l-26.938,46.246l-84.551,-39.239Z" style="fill:#007b8b;"/><path d="M352.711,296.751l-4.127,36.784c-0.021,0.19 -0.124,0.361 -0.281,0.47l-236.24,163.313c-0.26,0.18 -0.612,0.15 -0.838,-0.072c-0.226,-0.222 -0.263,-0.573 -0.088,-0.837l162.097,-243.906c0.108,-0.162 0.283,-0.269 0.477,-0.291l43.532,-4.871c0.179,-0.02 0.358,0.033 0.497,0.149c0.138,0.115 0.223,0.282 0.236,0.462c1.5,21.671 15.234,39.999 34.336,48.117c0.269,0.114 0.431,0.391 0.399,0.682Zm-0.657,-0.074c-19.325,-8.213 -33.22,-26.755 -34.737,-48.68l-43.533,4.872l-162.096,243.905l236.24,-163.313l4.126,-36.784Zm-30.335,-75.642c-27.183,-27.266 -61.398,-54.029 -96.447,-80.733c-0.23,-0.175 -0.319,-0.478 -0.221,-0.75c0.097,-0.271 0.36,-0.448 0.648,-0.436c59.408,2.467 101.25,18.547 149.114,47.099c0.256,0.153 0.378,0.457 0.299,0.744c-0.08,0.286 -0.341,0.485 -0.638,0.484l-0.082,0c-22.964,0 -42.749,13.717 -51.603,33.397c-0.089,0.198 -0.27,0.339 -0.484,0.378c-0.213,0.039 -0.433,-0.029 -0.586,-0.183Zm0.468,-0.466c8.957,-19.91 28.973,-33.786 52.205,-33.786l0.083,-0c-47.765,-28.494 -89.519,-44.545 -148.803,-47.007c35.074,26.724 69.312,53.507 96.515,80.793Zm67.656,-32.194l239.881,-110.419c0.269,-0.125 0.589,-0.054 0.78,0.173c0.192,0.227 0.209,0.553 0.042,0.799l-78.104,114.602c-0.1,0.147 -0.255,0.248 -0.43,0.279l-127.649,22.767c-0.276,0.049 -0.553,-0.081 -0.691,-0.325c-7.231,-12.806 -19.308,-22.519 -33.735,-26.641c-0.265,-0.076 -0.456,-0.309 -0.477,-0.584c-0.021,-0.276 0.132,-0.535 0.383,-0.651Zm0.276,0.6c14.595,4.17 26.813,13.996 34.128,26.951l127.649,-22.768l78.104,-114.602l-239.881,110.419Zm39.508,39.584l134.438,-9.776c0.279,-0.02 0.541,0.138 0.653,0.394c0.112,0.256 0.052,0.555 -0.152,0.746l-60.042,56.505c-0.131,0.123 -0.307,0.188 -0.486,0.179l-79.738,-4.034c-0.229,-0.012 -0.435,-0.141 -0.545,-0.341c-0.111,-0.2 -0.11,-0.443 0.002,-0.642c4.577,-8.164 7.187,-17.577 7.187,-27.594c-0,-5.051 -0.663,-9.947 -1.908,-14.607c-0.051,-0.19 -0.014,-0.393 0.1,-0.554c0.114,-0.16 0.294,-0.261 0.491,-0.276Zm0.047,0.659c1.259,4.715 1.93,9.668 1.93,14.778c0,10.134 -2.641,19.657 -7.271,27.917l79.738,4.034l60.042,-56.505l-134.439,9.776Zm-11.273,51.865c13.755,43.284 9.323,87.269 -4.037,131.596c-0.083,0.276 -0.335,0.466 -0.624,0.469c-0.288,0.004 -0.545,-0.18 -0.635,-0.453c-12.742,-38.687 -29.528,-76.564 -53.707,-112.963c-0.152,-0.228 -0.147,-0.526 0.012,-0.749c0.159,-0.223 0.44,-0.325 0.705,-0.256c4.561,1.188 9.345,1.821 14.277,1.821c17.137,-0 32.504,-7.64 42.878,-19.695c0.156,-0.182 0.399,-0.265 0.633,-0.217c0.235,0.048 0.425,0.219 0.498,0.447Zm-0.63,0.2c-10.496,12.197 -26.042,19.925 -43.379,19.925c-4.989,0 -9.829,-0.639 -14.444,-1.841c24.214,36.45 41.025,74.38 53.784,113.121c13.32,-44.195 17.753,-88.049 4.039,-131.205Zm-256.977,300.375l-29.196,-85.644c-0.098,-0.288 0.013,-0.605 0.27,-0.769l50.216,-32.113c0.206,-0.132 0.469,-0.139 0.682,-0.018c0.213,0.121 0.342,0.35 0.334,0.595c-1.237,40.688 -8.897,79.847 -21.052,117.936c-0.086,0.272 -0.337,0.457 -0.622,0.46c-0.285,0.003 -0.54,-0.178 -0.632,-0.447Zm0.625,-0.214c12.136,-38.03 19.785,-77.129 21.021,-117.755l-50.217,32.112l29.196,85.643Zm-131.562,-150.343c37.233,-8.261 74.466,-10.822 111.699,-7.019c0.223,0.023 0.419,0.158 0.521,0.358c0.102,0.2 0.095,0.438 -0.018,0.632l-26.938,46.246c-0.171,0.294 -0.539,0.41 -0.848,0.266l-84.551,-39.239c-0.257,-0.119 -0.409,-0.388 -0.379,-0.67c0.031,-0.282 0.237,-0.512 0.514,-0.574Zm0.143,0.645l84.551,39.239l26.938,-46.246c-37.163,-3.796 -74.326,-1.239 -111.489,7.007Z" style="fill:#fff;"/><circle cx="375.247" cy="243.33" r="40.581" style="fill:#30b0c1;"/><path d="M375.247,202.088c22.762,0 41.242,18.48 41.242,41.242c-0,22.762 -18.48,41.242 -41.242,41.242c-22.762,0 -41.242,-18.48 -41.242,-41.242c0,-22.762 18.48,-41.242 41.242,-41.242Zm-0,0.661c-22.398,0 -40.581,18.184 -40.581,40.581c-0,22.398 18.183,40.582 40.581,40.582c22.397,-0 40.581,-18.184 40.581,-40.582c0,-22.397 -18.184,-40.581 -40.581,-40.581Z" style="fill:#fff;"/></g></svg>