<?xml version="1.0" encoding="UTF-8" standalone="no"?><!DOCTYPE svg PUBLIC "-//W3C//DTD SVG 1.1//EN" "http://www.w3.org/Graphics/SVG/1.1/DTD/svg11.dtd"><svg width="100%" height="100%" viewBox="0 0 1564 660" version="1.1" xmlns="http://www.w3.org/2000/svg" xmlns:xlink="http://www.w3.org/1999/xlink" xml:space="preserve" xmlns:serif="http://www.serif.com/" style="fill-rule:evenodd;clip-rule:evenodd;stroke-linejoin:round;stroke-miterlimit:2;"><clipPath id="_clip1"><rect x="29.177" y="29.296" width="640.507" height="601.407"/></clipPath><g clip-path="url(#_clip1)"><path d="M607.212,167.797c30.796,46.779 48.672,102.464 48.672,162.203c-0,165.575 -137.317,300 -306.453,300c-61.173,-0 -118.184,-17.585 -166.042,-47.868c2.303,-8.198 4.404,-16.445 6.288,-24.743c45.421,30.655 100.463,48.611 159.754,48.611c155.605,0 281.936,-123.671 281.936,-276c0,-51.314 -14.335,-99.376 -39.297,-140.554l0.694,-0.45l14.448,-21.199Zm-548.677,256.757c-10.092,-29.731 -15.557,-61.523 -15.557,-94.554c0,-165.575 137.317,-300 306.453,-300c78.261,0 149.71,28.781 203.895,76.112l-24.303,11.187c-48.787,-39.531 -111.376,-63.299 -179.592,-63.299c-155.605,-0 -281.937,123.671 -281.937,276c0,32.17 5.635,63.062 15.99,91.781c-8.316,0.651 -16.632,1.578 -24.949,2.773Z" style="fill:#1a3033;"/><path d="M607.8,167.41c30.869,46.891 48.787,102.708 48.787,162.59c0,165.959 -137.628,300.704 -307.156,300.704c-61.312,-0 -118.452,-17.625 -166.418,-47.977c-0.263,-0.167 -0.385,-0.486 -0.301,-0.785c2.299,-8.187 4.397,-16.422 6.279,-24.709c0.051,-0.226 0.211,-0.413 0.427,-0.498c0.216,-0.086 0.46,-0.059 0.653,0.071c45.309,30.579 100.215,48.49 159.36,48.49c155.213,0 281.233,-123.352 281.233,-275.296c-0,-51.181 -14.299,-99.118 -39.196,-140.19c-0.197,-0.325 -0.1,-0.748 0.22,-0.955l0.575,-0.372l14.368,-21.082c0.132,-0.194 0.352,-0.31 0.587,-0.308c0.234,0.002 0.453,0.121 0.582,0.317Zm-0.588,0.387l-14.448,21.199l-0.694,0.45c24.962,41.178 39.297,89.24 39.297,140.554c0,152.329 -126.331,276 -281.936,276c-59.291,0 -114.333,-17.956 -159.754,-48.611c-1.884,8.298 -3.985,16.545 -6.288,24.743c47.858,30.283 104.869,47.868 166.042,47.868c169.136,-0 306.453,-134.425 306.453,-300c-0,-59.739 -17.876,-115.424 -48.672,-162.203Zm-549.343,256.984c-10.116,-29.803 -15.594,-61.671 -15.594,-94.781c-0,-165.959 137.628,-300.704 307.156,-300.704c78.439,0 150.05,28.848 204.358,76.286c0.18,0.157 0.268,0.394 0.233,0.63c-0.034,0.236 -0.185,0.439 -0.402,0.539l-24.303,11.187c-0.243,0.112 -0.529,0.076 -0.737,-0.093c-48.666,-39.433 -111.102,-63.141 -179.149,-63.141c-155.213,-0 -281.233,123.352 -281.233,275.296c0,32.087 5.62,62.898 15.948,91.543c0.074,0.206 0.048,0.436 -0.071,0.62c-0.119,0.184 -0.317,0.303 -0.536,0.32c-8.301,0.65 -16.602,1.574 -24.903,2.768c-0.336,0.048 -0.658,-0.15 -0.767,-0.47Zm0.666,-0.227c8.317,-1.195 16.633,-2.122 24.949,-2.773c-10.355,-28.719 -15.99,-59.611 -15.99,-91.781c0,-152.329 126.332,-276 281.937,-276c68.216,-0 130.805,23.768 179.592,63.299l24.303,-11.187c-54.185,-47.331 -125.634,-76.112 -203.895,-76.112c-169.136,0 -306.453,134.425 -306.453,300c0,33.031 5.465,64.823 15.557,94.554Z" style="fill:#fff;"/><path d="M372.922,294.505l-4.395,39.182l-251.635,173.956l172.66,-259.8l46.369,-5.19c1.617,23.354 16.416,43.104 37.001,51.852Zm-31.814,-81.068c-28.974,-29.064 -65.444,-57.592 -102.804,-86.057c63.148,2.622 107.623,19.719 158.5,50.07c-0.029,-0 -0.059,-0 -0.089,-0c-24.745,-0 -46.066,14.78 -55.607,35.987Zm72.36,-33.652l255.513,-117.615l-83.194,122.071l-135.967,24.251c-7.792,-13.799 -20.806,-24.265 -36.352,-28.707Zm42.133,42.866l143.2,-10.413l-63.955,60.187l-84.935,-4.298c4.933,-8.797 7.746,-18.941 7.746,-29.736c-0,-5.442 -0.715,-10.718 -2.056,-15.74Zm-12.679,55.458c14.608,45.968 9.886,92.679 -4.303,139.754c-13.59,-41.265 -31.497,-81.667 -57.288,-120.493c4.915,1.281 10.071,1.962 15.384,1.962c18.467,0 35.027,-8.232 46.207,-21.223Zm-273.058,319.721l-31.098,-91.224l53.489,-34.205c-1.316,43.273 -9.464,84.92 -22.391,125.429Zm-139.983,-159.453c39.585,-8.783 79.169,-11.507 118.754,-7.464l-28.694,49.26l-90.06,-41.796Z" style="fill:#007b8b;"/><path d="M373.622,294.584l-4.396,39.181c-0.023,0.202 -0.132,0.385 -0.299,0.501l-251.635,173.955c-0.278,0.192 -0.652,0.16 -0.893,-0.076c-0.241,-0.237 -0.28,-0.611 -0.093,-0.892l172.66,-259.8c0.115,-0.173 0.301,-0.287 0.508,-0.31l46.369,-5.189c0.19,-0.021 0.381,0.036 0.529,0.159c0.147,0.123 0.238,0.3 0.251,0.492c1.598,23.084 16.227,42.605 36.574,51.253c0.287,0.121 0.459,0.417 0.425,0.726Zm-0.7,-0.079c-20.585,-8.748 -35.384,-28.498 -37.001,-51.852l-46.369,5.19l-172.66,259.8l251.635,-173.956l4.395,-39.182Zm-32.312,-80.571c-28.954,-29.043 -65.399,-57.55 -102.732,-85.994c-0.245,-0.186 -0.34,-0.51 -0.236,-0.799c0.105,-0.289 0.384,-0.477 0.691,-0.464c63.279,2.628 107.849,19.755 158.832,50.168c0.272,0.163 0.402,0.487 0.317,0.792c-0.084,0.305 -0.362,0.517 -0.679,0.516l-0.088,0c-24.46,0 -45.534,14.611 -54.965,35.573c-0.095,0.211 -0.287,0.362 -0.515,0.403c-0.228,0.042 -0.461,-0.031 -0.625,-0.195Zm0.498,-0.497c9.541,-21.207 30.862,-35.987 55.607,-35.987l0.089,-0c-50.877,-30.351 -95.352,-47.448 -158.5,-50.07c37.36,28.465 73.83,56.993 102.804,86.057Zm72.065,-34.291l255.514,-117.615c0.287,-0.133 0.627,-0.057 0.831,0.184c0.204,0.242 0.223,0.59 0.045,0.851l-83.195,122.071c-0.106,0.156 -0.271,0.263 -0.457,0.297l-135.968,24.251c-0.294,0.052 -0.589,-0.087 -0.736,-0.347c-7.702,-13.64 -20.566,-23.986 -35.933,-28.376c-0.283,-0.081 -0.485,-0.33 -0.508,-0.623c-0.022,-0.294 0.14,-0.57 0.407,-0.693Zm0.295,0.639c15.546,4.442 28.56,14.908 36.352,28.707l135.967,-24.251l83.194,-122.071l-255.513,117.615Zm42.082,42.164l143.2,-10.413c0.297,-0.022 0.575,0.146 0.695,0.419c0.12,0.272 0.055,0.591 -0.162,0.795l-63.955,60.187c-0.139,0.131 -0.326,0.2 -0.518,0.19l-84.934,-4.297c-0.243,-0.012 -0.463,-0.149 -0.581,-0.362c-0.117,-0.213 -0.117,-0.472 0.002,-0.685c4.876,-8.696 7.656,-18.722 7.656,-29.392c-0,-5.379 -0.707,-10.595 -2.032,-15.559c-0.054,-0.202 -0.015,-0.419 0.107,-0.589c0.121,-0.171 0.313,-0.279 0.522,-0.294Zm0.051,0.702c1.341,5.022 2.056,10.298 2.056,15.74c-0,10.795 -2.813,20.939 -7.746,29.736l84.935,4.298l63.955,-60.187l-143.2,10.413Zm-12.009,55.245c14.652,46.104 9.932,92.955 -4.299,140.17c-0.088,0.295 -0.357,0.497 -0.665,0.501c-0.307,0.004 -0.581,-0.192 -0.677,-0.483c-13.572,-41.208 -31.451,-81.554 -57.206,-120.324c-0.162,-0.243 -0.156,-0.561 0.013,-0.798c0.169,-0.238 0.468,-0.346 0.75,-0.273c4.859,1.266 9.955,1.94 15.207,1.94c18.254,-0 34.623,-8.138 45.673,-20.979c0.167,-0.194 0.425,-0.282 0.675,-0.231c0.249,0.051 0.452,0.234 0.529,0.477Zm-0.67,0.213c-11.18,12.991 -27.74,21.223 -46.207,21.223c-5.313,0 -10.469,-0.681 -15.384,-1.962c25.791,38.826 43.698,79.228 57.288,120.493c14.189,-47.075 18.911,-93.786 4.303,-139.754Zm-273.724,319.948l-31.098,-91.224c-0.105,-0.307 0.014,-0.645 0.287,-0.82l53.489,-34.205c0.22,-0.141 0.499,-0.148 0.726,-0.019c0.227,0.128 0.364,0.372 0.356,0.633c-1.318,43.34 -9.477,85.051 -22.423,125.622c-0.093,0.289 -0.36,0.487 -0.664,0.49c-0.304,0.003 -0.575,-0.189 -0.673,-0.477Zm0.666,-0.227c12.927,-40.509 21.075,-82.156 22.391,-125.429l-53.489,34.205l31.098,91.224Zm-140.136,-160.14c39.66,-8.8 79.319,-11.528 118.978,-7.477c0.238,0.024 0.447,0.168 0.556,0.381c0.108,0.213 0.101,0.467 -0.019,0.673l-28.694,49.26c-0.182,0.314 -0.574,0.437 -0.904,0.284l-90.06,-41.796c-0.274,-0.127 -0.436,-0.414 -0.404,-0.714c0.033,-0.3 0.253,-0.546 0.547,-0.611Zm0.153,0.687l90.06,41.796l28.694,-49.26c-39.585,-4.043 -79.169,-1.319 -118.754,7.464Z" style="fill:#fff;"/><circle cx="397.626" cy="237.682" r="43.226" style="fill:#30b0c1;"/><path d="M397.626,193.753c24.246,-0 43.93,19.684 43.93,43.929c-0,24.246 -19.684,43.93 -43.93,43.93c-24.245,-0 -43.929,-19.684 -43.929,-43.93c-0,-24.245 19.684,-43.929 43.929,-43.929Zm0,0.703c-23.857,0 -43.225,19.369 -43.225,43.226c-0,23.857 19.368,43.226 43.225,43.226c23.857,0 43.226,-19.369 43.226,-43.226c0,-23.857 -19.369,-43.226 -43.226,-43.226Z" style="fill:#fff;"/></g><clipPath id="_clip2"><rect x="721.453" y="299.5" width="812.447" height="284.88"/></clipPath><g clip-path="url(#_clip2)"><path d="M1417.64,579.066c-1.07,3.092 -4.004,5.314 -7.451,5.314l-11.301,0c-4.349,0 -7.884,-3.538 -7.884,-7.899l0,-269.082c0,-4.361 3.535,-7.899 7.884,-7.899l11.301,0c4.35,0 7.884,3.538 7.884,7.899l-0,202.889l89.179,-205.749c0.328,-0.757 0.761,-1.436 1.266,-2.019c1.444,-1.839 3.686,-3.02 6.2,-3.02l11.3,0c4.35,0 7.884,3.538 7.884,7.899l0,269.082c0,4.361 -3.534,7.899 -7.884,7.899l-11.3,0c-4.35,0 -7.884,-3.538 -7.884,-7.899l-0,-202.888l-88.529,204.246c-0.189,0.435 -0.412,0.845 -0.665,1.227Zm-0.017,0.011c0.002,-0.005 0.005,-0.01 0.008,-0.016l-0.999,0.621c0,0 0,-0.001 -0.001,-0.002c0.002,0 0.002,0.001 0.002,0.001l-0.012,-0.025c-0.072,-0.157 -0.457,-0.986 -0.728,-1.389l-0.175,-0.333c0.21,-0.303 0.393,-0.63 0.545,-0.98l90.662,-209.17c0.21,-0.484 0.731,-0.754 1.248,-0.647c0.516,0.107 0.887,0.562 0.887,1.089l-0,208.255c-0,3.131 2.535,5.673 5.658,5.673l11.3,0c3.123,0 5.658,-2.542 5.658,-5.673l0,-269.082c0,-3.131 -2.535,-5.673 -5.658,-5.673l-11.3,0c-1.812,0 -3.426,0.856 -4.462,2.185c-0.013,0.017 -0.026,0.033 -0.039,0.048c-0.369,0.423 -0.684,0.916 -0.922,1.465l-91.314,210.672c-0.21,0.484 -0.731,0.755 -1.247,0.648c-0.517,-0.108 -0.887,-0.563 -0.887,-1.09l-0,-208.255c-0,-3.131 -2.535,-5.673 -5.658,-5.673l-11.301,0c-3.122,0 -5.658,2.542 -5.658,5.673l0,269.082c0,3.131 2.536,5.673 5.658,5.673l11.301,0c2.494,0 4.613,-1.621 5.365,-3.869c-0.021,0.077 -0.031,0.151 -0.033,0.221c-0.014,0.254 0.059,0.508 0.212,0.718c0.209,0.288 0.543,0.458 0.899,0.458c0.423,0 0.803,-0.238 0.991,-0.605Zm-0.992,0.603c-0.051,-0.018 -1.126,-0.398 -1.11,-1.174c0.006,-0.093 0.023,-0.187 0.052,-0.279c-0.006,0.02 -0.012,0.039 -0.019,0.058c0.019,-0.068 0.046,-0.138 0.082,-0.211c0.04,-0.08 0.137,0.015 0.257,0.193l0.728,1.389c0.005,0.012 0.009,0.02 0.01,0.024Zm-1.022,-1.62l-0.002,0.003c-0.683,2.353 -2.852,4.075 -5.418,4.075l-11.301,0c-3.114,0 -5.642,-2.534 -5.642,-5.657l0,-269.082c0,-3.122 2.528,-5.657 5.642,-5.657l11.301,-0c3.114,-0 5.642,2.535 5.642,5.657l0,213.659c0,0.004 0.003,0.007 0.006,0.008c0.004,0.001 0.008,-0.001 0.009,-0.005l93.463,-215.631c0.242,-0.558 0.564,-1.058 0.945,-1.491c1.033,-1.336 2.649,-2.197 4.464,-2.197l11.3,-0c3.114,-0 5.642,2.535 5.642,5.657l0,269.082c0,3.123 -2.528,5.657 -5.642,5.657l-11.3,0c-3.114,0 -5.643,-2.534 -5.643,-5.657l0,-213.659c0,-0.004 -0.002,-0.007 -0.006,-0.008c-0.004,-0 -0.007,0.002 -0.009,0.005l-92.812,214.129c-0.174,0.402 -0.39,0.774 -0.639,1.112Zm-1.792,-1.321c0.152,-0.206 0.283,-0.432 0.389,-0.677l92.812,-214.128c0.421,-0.972 1.466,-1.514 2.503,-1.299c1.037,0.215 1.78,1.128 1.78,2.187l0,213.659c0,1.893 1.529,3.432 3.417,3.432l11.3,-0c1.887,-0 3.416,-1.539 3.416,-3.432l0,-269.082c0,-1.892 -1.529,-3.431 -3.416,-3.431l-11.3,-0c-1.099,-0 -2.077,0.523 -2.702,1.332c-0.029,0.038 -0.06,0.075 -0.092,0.111c-0.231,0.263 -0.426,0.566 -0.573,0.905l-93.462,215.63c-0.422,0.972 -1.467,1.514 -2.504,1.299c-1.036,-0.215 -1.78,-1.128 -1.78,-2.187l0,-213.659c0,-1.892 -1.529,-3.431 -3.416,-3.431l-11.301,-0c-1.887,-0 -3.416,1.539 -3.416,3.431l-0,269.082c-0,1.893 1.529,3.432 3.416,3.432l11.301,-0c1.554,-0 2.867,-1.045 3.281,-2.471c0.073,-0.253 0.191,-0.491 0.347,-0.703Zm-207.849,-264.014c-0.135,-3.096 1.569,-6.115 4.543,-7.506l10.242,-4.788c3.944,-1.844 8.64,-0.133 10.48,3.822l121.968,262.241c1.837,3.95 0.127,8.652 -3.813,10.494l-10.241,4.788c-3.945,1.844 -8.641,0.133 -10.48,-3.822l-56.952,-122.45l-38.686,-0l-0,120.977c-0,4.361 -3.535,7.899 -7.884,7.899l-11.301,0c-4.349,0 -7.884,-3.538 -7.884,-7.899l0,-263.417c0,-0.114 0.003,-0.227 0.008,-0.339Zm2.227,-0.006c-0,0.021 -0.001,0.041 -0.002,0.062c-0.005,0.094 -0.007,0.188 -0.007,0.283l0,263.417c0,3.131 2.535,5.673 5.658,5.673l11.301,0c3.122,0 5.658,-2.542 5.658,-5.673l-0,-122.09c-0,-0.615 0.498,-1.113 1.113,-1.113l40.509,-0c0.433,-0 0.826,0.251 1.009,0.643l57.251,123.095c1.32,2.837 4.689,4.067 7.519,2.743l10.242,-4.788c2.83,-1.323 4.056,-4.701 2.736,-7.539l-121.967,-262.241c-1.32,-2.837 -4.689,-4.067 -7.52,-2.744l-10.241,4.789c-2.148,1.004 -3.372,3.192 -3.261,5.428c0.001,0.019 0.002,0.037 0.002,0.055Zm-2.026,0.638c-0.116,-0.166 -0.188,-0.365 -0.199,-0.582c0.01,0.247 0.089,0.437 0.199,0.582Zm2.043,-0.635l0,-0.001c-0.135,-2.25 1.088,-4.461 3.248,-5.471l10.242,-4.788c2.822,-1.32 6.182,-0.094 7.498,2.736l121.968,262.241c1.316,2.83 0.093,6.198 -2.729,7.518l-10.242,4.788c-2.822,1.32 -6.182,0.093 -7.498,-2.736l-57.552,-123.742c-0.001,-0.003 -0.004,-0.005 -0.007,-0.005l-42.345,0c-0.005,0 -0.008,0.004 -0.008,0.008l-0,123.211c-0,3.123 -2.528,5.657 -5.642,5.657l-11.301,0c-3.114,0 -5.642,-2.534 -5.642,-5.657l-0,-263.417c-0,-0.115 0.003,-0.229 0.01,-0.342Zm2.222,0.132c-0.004,0.07 -0.006,0.139 -0.006,0.21l-0,263.417c-0,1.893 1.529,3.432 3.416,3.432l11.301,-0c1.887,-0 3.416,-1.539 3.416,-3.432l0,-123.211c0,-1.234 1,-2.234 2.234,-2.234l42.345,0c0.869,0 1.659,0.504 2.025,1.292l57.552,123.742c0.797,1.713 2.829,2.457 4.538,1.659l10.241,-4.788c1.713,-0.801 2.452,-2.846 1.654,-4.563l-121.968,-262.241c-0.797,-1.713 -2.829,-2.457 -4.537,-1.659l-10.242,4.788c-1.311,0.613 -2.051,1.956 -1.969,3.321c0.005,0.089 0.005,0.178 -0,0.267Zm52.167,119.99l-31.806,0c-1.234,0 -2.234,-1 -2.234,-2.234l0,-68.385c0,-1.048 0.728,-1.955 1.751,-2.181c1.024,-0.226 2.066,0.289 2.508,1.239l31.806,68.385c0.322,0.692 0.268,1.5 -0.142,2.143c-0.41,0.644 -1.12,1.033 -1.883,1.033Zm-0,-2.226c0.002,0 0.005,-0.001 0.006,-0.003c0.002,-0.003 0.002,-0.006 0.001,-0.008l-31.806,-68.385c-0.002,-0.004 -0.005,-0.005 -0.009,-0.005c-0.003,0.001 -0.006,0.004 -0.006,0.008l-0,68.385c-0,0.005 0.003,0.008 0.008,0.008l31.806,0Zm-1.758,-0.016l-28.927,0c-0.615,0 -1.113,-0.498 -1.113,-1.112l-0,-62.197c-0,-0.522 0.363,-0.974 0.872,-1.087c0.51,-0.113 1.03,0.144 1.25,0.617l28.927,62.197c0.161,0.345 0.134,0.747 -0.07,1.068c-0.205,0.32 -0.559,0.514 -0.939,0.514Zm-1.745,-2.225l-26.069,-56.052l-0,56.052l26.069,-0Zm-386.27,-111.914l0,250.955c0,9.363 -7.585,16.962 -16.924,16.962l-117.525,0c-9.339,0 -16.924,-7.599 -16.924,-16.962l0,-250.955c0,-9.364 7.585,-16.963 16.924,-16.963l117.525,0c9.339,0 16.924,7.599 16.924,16.963Zm-2.226,-0c0,-8.134 -6.586,-14.737 -14.698,-14.737l-117.525,0c-8.112,0 -14.698,6.603 -14.698,14.737l0,250.955c0,8.133 6.586,14.736 14.698,14.736l117.525,0c8.112,0 14.698,-6.603 14.698,-14.736l0,-250.955Zm-0.016,-0l0,250.955c0,8.124 -6.579,14.72 -14.682,14.72l-117.525,0c-8.103,0 -14.682,-6.596 -14.682,-14.72l-0,-250.955c-0,-8.125 6.579,-14.721 14.682,-14.721l117.525,-0c8.103,-0 14.682,6.596 14.682,14.721Zm-2.225,-0c-0,-6.895 -5.581,-12.495 -12.457,-12.495l-117.525,-0c-6.876,-0 -12.456,5.6 -12.456,12.495l-0,250.955c-0,6.894 5.58,12.495 12.456,12.495l117.525,-0c6.876,-0 12.457,-5.601 12.457,-12.495l-0,-250.955Zm-118.633,42.926l91.781,197.338c0.275,0.59 0.278,1.27 0.011,1.862c-0.268,0.593 -0.781,1.039 -1.404,1.223c-1.086,0.32 -2.235,0.492 -3.423,0.492l-79.103,0c-6.688,0 -12.121,-5.441 -12.121,-12.147l-0,-187.826c-0,-1.048 0.728,-1.955 1.751,-2.181c1.023,-0.226 2.066,0.289 2.508,1.239Zm-2.019,0.939c-0.001,-0.003 -0.005,-0.005 -0.008,-0.004c-0.004,0 -0.007,0.004 -0.007,0.007l0,187.826c0,5.476 4.435,9.921 9.896,9.921l79.103,0c0.97,0 1.907,-0.14 2.793,-0.401c0.002,-0.001 0.004,-0.002 0.005,-0.004c0.001,-0.002 0.001,-0.005 0,-0.007l-91.782,-197.338Zm2.123,4.602l89.053,191.471c0.149,0.321 0.137,0.693 -0.032,1.003c-0.17,0.31 -0.477,0.522 -0.827,0.569c-0.436,0.059 -0.881,0.09 -1.333,0.09l-79.103,-0c-5.453,-0 -9.88,-4.439 -9.88,-9.906l0,-182.758c0,-0.522 0.363,-0.974 0.873,-1.087c0.51,-0.112 1.029,0.144 1.249,0.618Zm86.336,190.907l-86.232,-185.406l0,177.726c0,4.237 3.428,7.68 7.654,7.68l78.578,-0Zm8.387,-35.584l-89.974,-193.453c-0.305,-0.656 -0.274,-1.419 0.085,-2.048c0.358,-0.629 0.999,-1.045 1.72,-1.116c0.396,-0.04 0.798,-0.06 1.204,-0.06l79.103,0c6.689,0 12.122,5.441 12.122,12.147l-0,183.588c-0,1.048 -0.729,1.955 -1.752,2.181c-1.023,0.227 -2.066,-0.289 -2.508,-1.239Zm2.019,-0.938c0.001,0.003 0.005,0.005 0.009,0.004c0.003,-0.001 0.006,-0.004 0.006,-0.008l-0,-183.588c-0,-5.475 -4.434,-9.921 -9.896,-9.921l-79.103,-0c-0.332,-0 -0.661,0.016 -0.985,0.048c-0.002,0.001 -0.004,0.002 -0.006,0.004c-0.001,0.003 -0.001,0.005 0,0.008l89.975,193.453Zm-88.233,-193.497l78.352,-0c5.453,-0 9.88,4.438 9.88,9.905l-0,178.521c-0,0.522 -0.363,0.974 -0.873,1.086c-0.509,0.113 -1.029,-0.144 -1.249,-0.617l-87.119,-187.313c-0.16,-0.345 -0.134,-0.747 0.071,-1.068c0.204,-0.32 0.558,-0.514 0.938,-0.514Zm1.745,2.226l84.261,181.168l0,-173.489c0,-4.237 -3.428,-7.679 -7.654,-7.679l-76.607,-0Zm253.997,250.897c0,1.443 -0.573,2.826 -1.593,3.846c-1.02,1.02 -2.403,1.593 -3.846,1.593l-89.458,0c-9.339,0 -16.924,-7.599 -16.924,-16.962l-0,-250.955c-0,-9.364 7.585,-16.963 16.924,-16.963l89.458,0c1.443,0 2.826,0.573 3.846,1.593c1.02,1.02 1.593,2.404 1.593,3.846l0,17.666c0,1.442 -0.573,2.825 -1.593,3.845c-1.02,1.021 -2.403,1.594 -3.846,1.594l-70.247,-0c-4.226,-0 -7.654,3.442 -7.654,7.679l-0,212.434c-0,4.237 3.428,7.68 7.654,7.68l70.247,-0c1.443,-0 2.826,0.573 3.846,1.593c1.02,1.02 1.593,2.403 1.593,3.846l0,17.665Zm-2.226,0l0,-17.665c0,-0.852 -0.338,-1.67 -0.941,-2.272c-0.602,-0.603 -1.42,-0.941 -2.272,-0.941l-70.247,-0c-5.453,-0 -9.88,-4.439 -9.88,-9.906l-0,-212.434c-0,-5.467 4.427,-9.905 9.88,-9.905l70.247,-0c0.852,-0 1.67,-0.339 2.272,-0.941c0.603,-0.603 0.941,-1.42 0.941,-2.272l0,-17.666c0,-0.852 -0.338,-1.669 -0.941,-2.272c-0.602,-0.602 -1.42,-0.941 -2.272,-0.941l-89.458,0c-8.112,0 -14.698,6.603 -14.698,14.737l-0,250.955c-0,8.133 6.586,14.736 14.698,14.736l89.458,0c0.852,0 1.67,-0.338 2.272,-0.941c0.603,-0.602 0.941,-1.42 0.941,-2.272Zm-0.016,0c0,0.848 -0.336,1.661 -0.936,2.261c-0.6,0.6 -1.413,0.936 -2.261,0.936l-89.458,0c-8.104,0 -14.683,-6.596 -14.683,-14.72l0,-250.955c0,-8.125 6.579,-14.721 14.683,-14.721l89.458,-0c0.848,-0 1.661,0.337 2.261,0.936c0.6,0.6 0.936,1.413 0.936,2.261l0,17.666c0,0.848 -0.336,1.661 -0.936,2.26c-0.6,0.6 -1.413,0.937 -2.261,0.937l-70.247,-0c-5.462,-0 -9.896,4.446 -9.896,9.921l-0,212.434c-0,5.476 4.434,9.921 9.896,9.921l70.247,0c0.848,0 1.661,0.337 2.261,0.937c0.6,0.599 0.936,1.413 0.936,2.261l0,17.665Zm-2.225,-17.665c-0,-0.258 -0.103,-0.505 -0.285,-0.687c-0.182,-0.182 -0.429,-0.285 -0.687,-0.285l-70.247,0c-6.689,0 -12.122,-5.441 -12.122,-12.147l0,-212.434c0,-6.706 5.433,-12.147 12.122,-12.147l70.247,0c0.258,0 0.505,-0.102 0.687,-0.284c0.182,-0.183 0.285,-0.43 0.285,-0.687l-0,-17.666c-0,-0.257 -0.103,-0.505 -0.285,-0.687c-0.182,-0.182 -0.429,-0.284 -0.687,-0.284l-89.458,-0c-6.877,-0 -12.457,5.6 -12.457,12.495l0,250.955c0,6.894 5.58,12.495 12.457,12.495l89.458,-0c0.258,-0 0.505,-0.103 0.687,-0.285c0.182,-0.182 0.285,-0.429 0.285,-0.687l-0,-17.665Zm165.498,-253.877l-0,11.33c-0,4.359 -3.539,7.898 -7.899,7.898l-112.974,0c-4.36,0 -7.899,-3.539 -7.899,-7.898l-0,-11.33c-0,-4.36 3.539,-7.899 7.899,-7.899l112.974,0c4.36,0 7.899,3.539 7.899,7.899Zm-2.226,-0c0,-3.131 -2.542,-5.673 -5.673,-5.673l-112.974,0c-3.131,0 -5.673,2.542 -5.673,5.673l-0,11.33c-0,3.131 2.542,5.672 5.673,5.672l112.974,0c3.131,0 5.673,-2.541 5.673,-5.672l0,-11.33Zm-0.016,-0l0,11.33c0,3.122 -2.534,5.657 -5.657,5.657l-112.974,-0c-3.123,-0 -5.657,-2.535 -5.657,-5.657l-0,-11.33c-0,-3.122 2.534,-5.657 5.657,-5.657l112.974,-0c3.123,-0 5.657,2.535 5.657,5.657Zm-2.226,-0c0,-1.894 -1.537,-3.431 -3.431,-3.431l-112.974,-0c-1.894,-0 -3.432,1.537 -3.432,3.431l0,11.33c0,1.893 1.538,3.431 3.432,3.431l112.974,-0c1.894,-0 3.431,-1.538 3.431,-3.431l0,-11.33Zm4.468,257.753l-0,11.329c-0,4.36 -3.539,7.899 -7.899,7.899l-112.974,0c-4.36,0 -7.899,-3.539 -7.899,-7.899l-0,-11.329c-0,-4.36 3.539,-7.899 7.899,-7.899l112.974,-0c4.36,-0 7.899,3.539 7.899,7.899Zm-2.226,-0c0,-3.131 -2.542,-5.673 -5.673,-5.673l-112.974,-0c-3.131,-0 -5.673,2.542 -5.673,5.673l-0,11.329c-0,3.131 2.542,5.673 5.673,5.673l112.974,0c3.131,0 5.673,-2.542 5.673,-5.673l0,-11.329Zm-0.016,-0l0,11.329c0,3.123 -2.534,5.657 -5.657,5.657l-112.974,0c-3.123,0 -5.657,-2.534 -5.657,-5.657l-0,-11.329c-0,-3.123 2.534,-5.657 5.657,-5.657l112.974,-0c3.123,-0 5.657,2.534 5.657,5.657Zm-2.226,-0c0,-1.894 -1.537,-3.432 -3.431,-3.432l-112.974,0c-1.894,0 -3.432,1.538 -3.432,3.432l0,11.329c0,1.894 1.538,3.432 3.432,3.432l112.974,-0c1.894,-0 3.431,-1.538 3.431,-3.432l0,-11.329Zm4.468,-128.877l-0,11.33c-0,4.359 -3.539,7.899 -7.899,7.899l-112.974,-0c-4.36,-0 -7.899,-3.54 -7.899,-7.899l-0,-11.33c-0,-4.359 3.539,-7.898 7.899,-7.898l112.974,-0c4.36,-0 7.899,3.539 7.899,7.898Zm-2.226,0c0,-3.131 -2.542,-5.673 -5.673,-5.673l-112.974,0c-3.131,0 -5.673,2.542 -5.673,5.673l-0,11.33c-0,3.131 2.542,5.673 5.673,5.673l112.974,-0c3.131,-0 5.673,-2.542 5.673,-5.673l0,-11.33Zm-0.016,0l0,11.33c0,3.122 -2.534,5.657 -5.657,5.657l-112.974,0c-3.123,0 -5.657,-2.535 -5.657,-5.657l-0,-11.33c-0,-3.122 2.534,-5.657 5.657,-5.657l112.974,0c3.123,0 5.657,2.535 5.657,5.657Zm-2.226,0c0,-1.893 -1.537,-3.431 -3.431,-3.431l-112.974,0c-1.894,0 -3.432,1.538 -3.432,3.431l0,11.33c0,1.894 1.538,3.431 3.432,3.431l112.974,0c1.894,0 3.431,-1.537 3.431,-3.431l0,-11.33Z" style="fill:#fff;"/><path d="M870.592,316.463l0,250.955c0,8.129 -6.582,14.728 -14.69,14.728l-117.525,0c-8.107,0 -14.69,-6.599 -14.69,-14.728l-0,-250.955c-0,-8.129 6.583,-14.729 14.69,-14.729l117.525,-0c8.108,-0 14.69,6.6 14.69,14.729Zm-122.892,43.868l0,187.826c0,5.471 4.431,9.914 9.888,9.914l79.103,-0c0.969,-0 1.906,-0.141 2.791,-0.402l-91.782,-197.338Zm98.879,158.98l-0,-183.588c-0,-5.471 -4.431,-9.913 -9.888,-9.913l-79.103,-0c-0.332,-0 -0.66,0.016 -0.984,0.048l89.975,193.453Zm165.268,59.63c0,0.85 -0.337,1.665 -0.938,2.267c-0.601,0.601 -1.417,0.938 -2.267,0.938l-89.458,0c-8.108,0 -14.691,-6.599 -14.691,-14.728l0,-250.955c0,-8.129 6.583,-14.729 14.691,-14.729l89.458,-0c0.85,-0 1.666,0.338 2.267,0.939c0.601,0.601 0.938,1.416 0.938,2.266l0,17.666c0,0.85 -0.337,1.665 -0.938,2.266c-0.601,0.601 -1.417,0.939 -2.267,0.939l-70.247,-0c-5.458,-0 -9.888,4.442 -9.888,9.913l-0,212.434c-0,5.471 4.43,9.914 9.888,9.914l70.247,-0c0.85,-0 1.666,0.337 2.267,0.938c0.601,0.601 0.938,1.417 0.938,2.267l0,17.665Zm161.031,-271.542l0,11.33c0,3.126 -2.538,5.665 -5.665,5.665l-112.974,-0c-3.127,-0 -5.665,-2.539 -5.665,-5.665l-0,-11.33c-0,-3.127 2.538,-5.665 5.665,-5.665l112.974,-0c3.127,-0 5.665,2.538 5.665,5.665Zm0,257.753l0,11.329c0,3.127 -2.538,5.665 -5.665,5.665l-112.974,0c-3.127,0 -5.665,-2.538 -5.665,-5.665l-0,-11.329c-0,-3.127 2.538,-5.665 5.665,-5.665l112.974,-0c3.127,-0 5.665,2.538 5.665,5.665Zm242.735,12.913c-0.684,2.357 -2.856,4.081 -5.426,4.081l-11.301,0c-3.118,0 -5.65,-2.538 -5.65,-5.665l0,-269.082c0,-3.127 2.532,-5.665 5.65,-5.665l11.301,-0c3.118,-0 5.65,2.538 5.65,5.665l0,213.659l93.463,-215.631c0.242,-0.559 0.564,-1.059 0.946,-1.493c1.034,-1.338 2.652,-2.2 4.47,-2.2l11.3,-0c3.118,-0 5.65,2.538 5.65,5.665l0,269.082c0,3.127 -2.532,5.665 -5.65,5.665l-11.3,0c-3.119,0 -5.651,-2.538 -5.651,-5.665l0,-213.659l-92.811,214.129c-0.175,0.403 -0.391,0.775 -0.641,1.114Zm-242.735,-141.79l0,11.33c0,3.127 -2.538,5.665 -5.665,5.665l-112.974,-0c-3.127,-0 -5.665,-2.538 -5.665,-5.665l-0,-11.33c-0,-3.126 2.538,-5.665 5.665,-5.665l112.974,0c3.127,0 5.665,2.539 5.665,5.665Zm35.324,-123.554c-0.135,-2.253 1.09,-4.467 3.253,-5.478l10.242,-4.788c2.826,-1.322 6.19,-0.094 7.508,2.74l121.968,262.241c1.318,2.833 0.094,6.207 -2.733,7.528l-10.241,4.788c-2.827,1.322 -6.191,0.094 -7.509,-2.74l-57.552,-123.742l-42.345,-0l-0,123.211c-0,3.127 -2.532,5.665 -5.65,5.665l-11.301,0c-3.118,0 -5.65,-2.538 -5.65,-5.665l0,-263.417c0,-0.115 0.003,-0.229 0.01,-0.343Zm54.397,117.889l-31.806,-68.385l-0,68.385l31.806,0Z" style="fill:#30b0c1;"/><path d="M1416.63,578.568l-0.001,0.001c-0.879,2.726 -3.433,4.698 -6.443,4.698l-11.301,0c-3.736,0 -6.771,-3.04 -6.771,-6.786l0,-269.082c0,-3.746 3.035,-6.786 6.771,-6.786l11.301,0c3.736,0 6.771,3.04 6.771,6.786l-0,208.255l91.314,-210.672c0.285,-0.659 0.662,-1.249 1.104,-1.755c1.24,-1.591 3.172,-2.614 5.34,-2.614l11.3,0c3.736,0 6.771,3.04 6.771,6.786l0,269.082c0,3.746 -3.035,6.786 -6.771,6.786l-11.3,0c-3.737,0 -6.771,-3.04 -6.771,-6.786l-0,-208.255l-90.663,209.171c-0.182,0.418 -0.4,0.809 -0.651,1.171Zm-1.92,-1.168c0.201,-0.272 0.374,-0.571 0.514,-0.895l92.812,-214.129c0.211,-0.487 0.736,-0.759 1.256,-0.651c0.52,0.108 0.893,0.566 0.893,1.097l0,213.659c0,2.508 2.029,4.544 4.53,4.544l11.3,0c2.501,0 4.529,-2.036 4.529,-4.544l0,-269.082c0,-2.507 -2.028,-4.544 -4.529,-4.544l-11.3,-0c-1.457,-0 -2.754,0.692 -3.583,1.764c-0.014,0.02 -0.03,0.038 -0.046,0.056c-0.306,0.348 -0.564,0.75 -0.759,1.198l-93.463,215.631c-0.211,0.487 -0.735,0.759 -1.256,0.652c-0.52,-0.108 -0.893,-0.567 -0.893,-1.098l0,-213.659c0,-2.507 -2.029,-4.544 -4.529,-4.544l-11.301,-0c-2.5,-0 -4.529,2.037 -4.529,4.544l0,269.082c0,2.508 2.029,4.544 4.529,4.544l11.301,0c2.06,0 3.801,-1.383 4.35,-3.272c0.036,-0.127 0.095,-0.247 0.174,-0.353Zm-207.631,-264.674l-0,-0.006c-0.134,-2.676 1.331,-5.291 3.9,-6.493l10.242,-4.788c3.387,-1.583 7.42,-0.113 9,3.283l121.968,262.241c1.578,3.394 0.11,7.434 -3.275,9.016l-10.242,4.789c-3.387,1.583 -7.42,0.113 -8.999,-3.283l-57.251,-123.094l-40.509,-0l-0,122.09c-0,3.746 -3.035,6.786 -6.771,6.786l-11.301,0c-3.736,0 -6.771,-3.04 -6.771,-6.786l0,-263.417c0,-0.113 0.003,-0.226 0.009,-0.338Zm2.241,0.062c-0.005,0.091 -0.008,0.183 -0.008,0.276l-0,263.417c-0,2.508 2.029,4.544 4.529,4.544l11.301,0c2.5,0 4.529,-2.036 4.529,-4.544l0,-123.211c0,-0.619 0.502,-1.121 1.121,-1.121l42.345,0c0.436,0 0.832,0.253 1.016,0.648l57.552,123.742c1.057,2.272 3.753,3.257 6.018,2.198l10.242,-4.788c2.267,-1.06 3.248,-3.767 2.191,-6.041l-121.968,-262.241c-1.056,-2.271 -3.752,-3.256 -6.018,-2.197l-10.241,4.788c-1.736,0.812 -2.718,2.588 -2.609,4.396c0.003,0.045 0.003,0.09 0,0.134Zm53.278,118.943l-31.806,0c-0.619,0 -1.121,-0.502 -1.121,-1.121l0,-68.385c0,-0.526 0.365,-0.981 0.879,-1.094c0.513,-0.114 1.036,0.145 1.258,0.621l31.806,68.386c0.161,0.347 0.135,0.752 -0.071,1.075c-0.206,0.323 -0.562,0.518 -0.945,0.518Zm-1.758,-2.241l-28.927,-62.197l-0,62.197l28.927,-0Zm-389.128,-113.027l0,250.955c0,8.748 -7.086,15.849 -15.811,15.849l-117.525,0c-8.725,0 -15.811,-7.101 -15.811,-15.849l0,-250.955c0,-8.749 7.086,-15.85 15.811,-15.85l117.525,0c8.725,0 15.811,7.101 15.811,15.85Zm-2.242,-0c0,-7.51 -6.079,-13.608 -13.569,-13.608l-117.525,-0c-7.49,-0 -13.569,6.098 -13.569,13.608l-0,250.955c-0,7.509 6.079,13.607 13.569,13.607l117.525,0c7.49,0 13.569,-6.098 13.569,-13.607l0,-250.955Zm-120.754,43.396l91.781,197.338c0.138,0.296 0.14,0.637 0.005,0.934c-0.134,0.297 -0.391,0.521 -0.704,0.613c-0.986,0.291 -2.029,0.447 -3.108,0.447l-79.103,0c-6.075,0 -11.009,-4.943 -11.009,-11.034l0,-187.826c0,-0.525 0.366,-0.981 0.879,-1.094c0.514,-0.114 1.037,0.145 1.259,0.622Zm0.104,5.54l0,182.758c0,4.852 3.928,8.793 8.767,8.793l79.103,-0c0.401,-0 0.796,-0.027 1.183,-0.08l-89.053,-191.471Zm96.742,154.385l-89.975,-193.453c-0.153,-0.329 -0.137,-0.712 0.043,-1.028c0.18,-0.315 0.501,-0.524 0.863,-0.56c0.36,-0.036 0.725,-0.054 1.094,-0.054l79.103,-0c6.075,-0 11.009,4.944 11.009,11.034l-0,183.588c-0,0.526 -0.366,0.981 -0.879,1.095c-0.513,0.113 -1.037,-0.145 -1.258,-0.622Zm-87.224,-192.853l87.119,187.313l0,-178.521c0,-4.852 -3.928,-8.792 -8.767,-8.792l-78.352,-0Zm254.629,252.01c0,1.147 -0.456,2.248 -1.267,3.059c-0.811,0.811 -1.911,1.267 -3.059,1.267l-89.458,0c-8.726,0 -15.811,-7.101 -15.811,-15.849l-0,-250.955c-0,-8.749 7.085,-15.85 15.811,-15.85l89.458,0c1.148,0 2.248,0.456 3.059,1.267c0.811,0.812 1.267,1.912 1.267,3.059l0,17.666c0,1.147 -0.456,2.247 -1.267,3.059c-0.811,0.811 -1.911,1.267 -3.059,1.267l-70.247,-0c-4.84,-0 -8.767,3.94 -8.767,8.792l-0,212.434c-0,4.852 3.927,8.793 8.767,8.793l70.247,-0c1.148,-0 2.248,0.455 3.059,1.267c0.811,0.811 1.267,1.911 1.267,3.059l0,17.665Zm-2.241,0l-0,-17.665c-0,-0.553 -0.22,-1.083 -0.611,-1.474c-0.391,-0.391 -0.921,-0.611 -1.474,-0.611l-70.247,0c-6.075,0 -11.009,-4.943 -11.009,-11.034l0,-212.434c0,-6.09 4.934,-11.034 11.009,-11.034l70.247,-0c0.553,-0 1.083,-0.22 1.474,-0.611c0.391,-0.39 0.611,-0.921 0.611,-1.473l-0,-17.666c-0,-0.553 -0.22,-1.083 -0.611,-1.474c-0.391,-0.391 -0.921,-0.61 -1.474,-0.61l-89.458,-0c-7.49,-0 -13.57,6.098 -13.57,13.608l0,250.955c0,7.509 6.08,13.607 13.57,13.607l89.458,0c0.553,0 1.083,-0.219 1.474,-0.61c0.391,-0.391 0.611,-0.921 0.611,-1.474Zm163.272,-271.542l0,11.33c0,3.745 -3.041,6.785 -6.786,6.785l-112.974,0c-3.746,0 -6.786,-3.04 -6.786,-6.785l-0,-11.33c-0,-3.745 3.04,-6.786 6.786,-6.786l112.974,0c3.745,0 6.786,3.041 6.786,6.786Zm-2.242,-0c0,-2.508 -2.036,-4.544 -4.544,-4.544l-112.974,-0c-2.508,-0 -4.544,2.036 -4.544,4.544l-0,11.33c-0,2.508 2.036,4.544 4.544,4.544l112.974,-0c2.508,-0 4.544,-2.036 4.544,-4.544l0,-11.33Zm2.242,257.753l0,11.329c0,3.746 -3.041,6.786 -6.786,6.786l-112.974,0c-3.746,0 -6.786,-3.04 -6.786,-6.786l-0,-11.329c-0,-3.746 3.04,-6.786 6.786,-6.786l112.974,-0c3.745,-0 6.786,3.04 6.786,6.786Zm-2.242,-0c0,-2.508 -2.036,-4.544 -4.544,-4.544l-112.974,-0c-2.508,-0 -4.544,2.036 -4.544,4.544l-0,11.329c-0,2.508 2.036,4.544 4.544,4.544l112.974,0c2.508,0 4.544,-2.036 4.544,-4.544l0,-11.329Zm2.242,-128.877l0,11.33c0,3.745 -3.041,6.786 -6.786,6.786l-112.974,-0c-3.746,-0 -6.786,-3.041 -6.786,-6.786l-0,-11.33c-0,-3.745 3.04,-6.785 6.786,-6.785l112.974,-0c3.745,-0 6.786,3.04 6.786,6.785Zm-2.242,0c0,-2.508 -2.036,-4.544 -4.544,-4.544l-112.974,0c-2.508,0 -4.544,2.036 -4.544,4.544l-0,11.33c-0,2.508 2.036,4.544 4.544,4.544l112.974,0c2.508,0 4.544,-2.036 4.544,-4.544l0,-11.33Z" style="fill:#1b3034;"/></g></svg>